<svg height="16" width="16" xmlns="http://www.w3.org/2000/svg"><path d="m15.1875 0c-.202645 0-.405291.0615405-.5625.21875l-2.75 2.75h-1.875a.63312664.63136584 0 0 0 -.4375.1875l-2.375 2.375a.63312664.63136584 0 0 0 0 .875l2.375 2.375a.63312664.63136584 0 0 0 .59375.1875.63312664.63136584 0 0 0 .28125-.1875l2.375-2.375a.63312664.63136584 0 0 0 .1875-.4375v-1.875l2.75-2.75c.314418-.314417.314418-.810582 0-1.125-.157209-.1572095-.359855-.21875-.5625-.21875zm-9.34375 7a.63312664.63136584 0 0 0 -.28125.1875l-2.375 2.375a.63312664.63136584 0 0 0 -.1875.4375v1.875l-2.75 2.75c-.31441823.314417-.31441823.810582 0 1.125.31441825.314419.8105817.314419 1.125 0l2.75-2.75h1.875a.63312664.63136584 0 0 0 .4375-.1875l2.375-2.375a.63312664.63136584 0 0 0 0-.875l-2.375-2.375a.63312664.63136584 0 0 0 -.59375-.1875z" fill="#bebebe" opacity=".45"/><path d="m10.006337 11.504753 1.498416-1.498416 1.498416 1.498416 1.498415-1.498416 1.498416 1.498416-1.498416 1.498415 1.498416 1.498416-1.498416 1.498416-1.498415-1.498416-1.498416 1.498416-1.498416-1.498416 1.498416-1.498416z" fill="#d40000"/></svg>