<svg height="16" viewBox="0 0 4.5155557 4.5155557" width="16" xmlns="http://www.w3.org/2000/svg"><g fill="#bebebe"><path d="m1.9755556 1.4111112c-.1516865 0-.2822222.1442231-.2822222.2822222v1.4111111c0 .145496.08804.2822223.2822222.2822223h.8466659l.0000008.673676h.5644441l-.0000001-.673676h.8466672c.1814704 0 .2822222-.1227198.2822222-.2822223v-1.4111111c0-.1394843-.1107556-.2822222-.2822222-.2822222zm.5644444.5644445h1.1288889c.1549948 0 .2822223.1091863.2822223.2822222l.0000001.2822222c0 .1430213-.1092193.2822222-.2822223.2822222h-1.1288889c-.1750039 0-.2822223-.1171909-.2822223-.2822222l-.0000001-.2822222c0-.1570055.1178211-.2822222.2822223-.2822222zm-.5644444 1.9790889v.5644445h2.2577779v-.5644445z"/><path d="m1 0c-1 0-1 1-1 1v6s0 1 1 1h3v1.9776053h-3v1.9999997h4v-5.977605l-2 .0000001c-.5505938 0-1-.4616369-1-1v-2.0000001c0-.5673092.4471894-1 1-1h4c.5999703 0 1 .4246011 1 1v1h2v-3c0-1-1-1-1-1z" transform="scale(.28222223)"/></g></svg>