<svg height="16" width="16" xmlns="http://www.w3.org/2000/svg"><g fill="#bebebe" transform="translate(-101.03 -467)"><path d="m102.03 472c-.55291 0-.99804.5231-.99804 1.1562v4.5625c0 .63314.41568 1.2812.96859 1.2812h1c0 .63315.47458 1 1.0275 1h.99607c.55291 0 .97644-.36685.97644-1h5.9882c0 .63315.46672 1 1.0196 1h.99411c.55291 0 .99804-.36685.99804-1h1.002c.55292 0 .99804-.64811.99804-1.2812v-4.5625c-.01-.64-.45-1.16-1.01-1.16zm.49902 1.1921c.2756 0 .49902.92718.49902 2.3079s-.22342 2.238-.49902 2.238-.49902-.85732-.49902-2.238.22342-2.3079.49902-2.3079zm1.9961-.00018c.2756 0 .49902 1.1193.49902 2.5s-.25828 2.0408-.53388 2.0408-.46416-.85204-.46416-2.2328c0-1.3807.22342-2.3081.49902-2.3081zm1.9612 0c.2756 0 .53388.92736.53388 2.3081s-.22342 2.2328-.49902 2.2328c-.27559 0-.49901-.85204-.49901-2.2328 0-1.3807.18856-2.3081.46415-2.3081zm7.02-.19c1.378 0 2.4951 1.1193 2.4951 2.5s-1.1171 2.5-2.4951 2.5-2.4951-1.1193-2.4951-2.5 1.1171-2.5 2.4951-2.5z"/><path d="m-125 258a2 2 0 1 1 -4 0 2 2 0 1 1 4 0z" transform="matrix(.75 0 0 .75 208.75 282)"/></g></svg>