<svg height="16" width="16" xmlns="http://www.w3.org/2000/svg"><path d="m5.7287846 19.142522-5.49297094 5.46789c-.31441823.314417-.31441823.839356 0 1.153774.31441825.314419.83935644.314419 1.15377474 0l5.5932991-5.593299c-.4500764-.306276-.858182-.657288-1.2541029-1.028365z" fill="#f00" opacity=".2"/><path d="m10.875 8.46875a.53394727.53394727 0 0 0 -.25.15625l-2 2a.53394727.53394727 0 0 0 -.15625.375v2a.53394727.53394727 0 0 0 .53125.53125h2a.53394727.53394727 0 0 0 .375-.15625l2-2a.53394727.53394727 0 0 0 0-.75l-2-2a.53394727.53394727 0 0 0 -.5-.15625z" fill="#f00" opacity=".2" transform="matrix(1.0869353 0 0 1.0839124 -6.204983 8.333311)"/><g fill="#bebebe"><path d="m5.84375 7a.63312664.63136584 0 0 0 -.28125.1875l-2.375 2.375a.63312664.63136584 0 0 0 -.1875.4375v1.875l-2.75 2.75c-.31441823.314417-.31441823.810582 0 1.125.31441825.314419.8105817.314419 1.125 0l2.75-2.75h1.875a.63312664.63136584 0 0 0 .4375-.1875l2.375-2.375a.63312664.63136584 0 0 0 0-.875l-2.375-2.375a.63312664.63136584 0 0 0 -.59375-.1875z"/><path d="m10.159583 8.972266a.63312664.63136584 0 0 0 .28125-.1875l2.375-2.375a.63312664.63136584 0 0 0 .1875-.4375v-1.875l2.75-2.7499997c.314418-.314417.314418-.810582 0-1.125-.314418-.314419-.810582-.314419-1.125 0l-2.75 2.75h-1.875a.63312664.63136584 0 0 0 -.4375.1874997l-2.375 2.375a.63312664.63136584 0 0 0 0 .875l2.375 2.375a.63312664.63136584 0 0 0 .59375.1875z"/></g></svg>