<?xml version="1.0" encoding="utf-8"?>
<!-- Generator: Adobe Illustrator 19.0.1, SVG Export Plug-In . SVG Version: 6.00 Build 0)  -->
<svg version="1.1" id="Calque_1" xmlns="http://www.w3.org/2000/svg" xmlns:xlink="http://www.w3.org/1999/xlink" x="0px" y="0px"
	 viewBox="-435 234.7 87.6 92.3" style="enable-background:new -435 234.7 87.6 92.3;" xml:space="preserve">
<style type="text/css">
	.st0{fill:#FFFFFF;}
</style>
<rect x="-430.9" y="294" class="st0" width="71.9" height="29"/>
<rect id="backgound_modem" x="-430.9" y="294" class="st0" width="71.9" height="29"/>
<path id="XMLID_582_" d="M-423.4,309c0-0.5,0.1-0.9,0.3-1.3c0.2-0.4,0.4-0.8,0.7-1.1c0.3-0.3,0.7-0.5,1.1-0.7
	c0.4-0.2,0.8-0.3,1.3-0.3s0.9,0.1,1.3,0.3c0.4,0.2,0.8,0.4,1.1,0.7c0.3,0.3,0.5,0.7,0.7,1.1c0.2,0.4,0.3,0.9,0.3,1.3
	c0,0.5-0.1,0.9-0.3,1.3c-0.2,0.4-0.4,0.8-0.7,1.1c-0.3,0.3-0.7,0.5-1.1,0.7c-0.4,0.2-0.9,0.3-1.3,0.3c-0.5,0-0.9-0.1-1.3-0.3
	c-0.4-0.2-0.8-0.4-1.1-0.7c-0.3-0.3-0.5-0.7-0.7-1.1C-423.3,309.9-423.4,309.5-423.4,309z"/>
<path id="XMLID_571_" d="M-409.1,309c0-0.5,0.1-0.9,0.3-1.3c0.2-0.4,0.4-0.8,0.7-1.1c0.3-0.3,0.7-0.5,1.1-0.7
	c0.4-0.2,0.8-0.3,1.3-0.3s0.9,0.1,1.3,0.3c0.4,0.2,0.8,0.4,1.1,0.7c0.3,0.3,0.5,0.7,0.7,1.1c0.2,0.4,0.3,0.9,0.3,1.3
	c0,0.5-0.1,0.9-0.3,1.3c-0.2,0.4-0.4,0.8-0.7,1.1c-0.3,0.3-0.7,0.5-1.1,0.7c-0.4,0.2-0.9,0.3-1.3,0.3c-0.5,0-0.9-0.1-1.3-0.3
	c-0.4-0.2-0.8-0.4-1.1-0.7c-0.3-0.3-0.5-0.7-0.7-1.1C-409,309.9-409.1,309.5-409.1,309z"/>
<path id="XMLID_696_" d="M-365.4,290H-376v-31h-4v31h-44.5c-6,0-10.5,5.1-10.5,11.1v15.4c0,6,4.5,10.5,10.5,10.5h58.4
	c6,0,11.2-4.6,11.2-10.6v-16.1C-355,294.7-359.8,290-365.4,290z M-359,316.4c0,3.8-3.4,6.6-7.2,6.6h-58.3c-3.8,0-6.5-2.8-6.5-6.5
	v-15.4c0-3.8,2.8-7.1,6.5-7.1h59.1c3.3,0,6.4,3,6.4,6.3V316.4z"/>
<g id="XMLID_526_">
	<path id="XMLID_514_" d="M-398.6,283.4l-1.4-1.5l-0.1-0.1c-2.7-2.8-4.8-6.2-6.3-10.1c-1.5-3.8-2.2-8.1-2.2-12.7s0.7-8.8,2.2-12.7
		c1.5-3.9,3.6-7.3,6.3-10.1c0,0.1,0.1,0,0.1-0.1l1.4-1.4l2.8,2.8l-1.6,1.6c-2.3,2.4-4.1,5.3-5.4,8.7c-1.3,3.4-1.9,7.2-1.9,11.3
		s0.7,7.9,1.9,11.3c1.3,3.4,3.1,6.3,5.4,8.7c0,0,0,0,0.1,0.1l1.4,1.4L-398.6,283.4z"/>
</g>
<g id="XMLID_525_">
	<path id="XMLID_512_" d="M-393,277.7l-1.4-1.4c-0.1-0.1-0.2-0.1-0.2-0.2c-2-2.1-3.6-4.6-4.7-7.5c-1.1-2.9-1.7-6.1-1.7-9.5
		c0-3.4,0.6-6.6,1.6-9.5c1.1-2.9,2.7-5.4,4.7-7.6c0.1-0.1,0.2-0.1,0.2-0.2l1.5-1.4l2.9,2.8l-1.4,1.4c-0.1,0.1-0.1,0.1-0.2,0.2
		c-1.7,1.7-3,3.8-3.9,6.2c-0.9,2.4-1.4,5.1-1.4,8.1c0,2.9,0.5,5.6,1.4,8.1c0.9,2.4,2.2,4.5,3.9,6.2c0.1,0.1,0.1,0.1,0.2,0.2l1.4,1.4
		L-393,277.7z"/>
</g>
<g id="XMLID_524_">
	<path id="XMLID_511_" d="M-387,271.8l-1.4-1.4c-0.2-0.1-0.3-0.2-0.3-0.3c-1.3-1.4-2.3-3-3.1-4.9c-0.7-1.9-1.1-3.9-1.1-6.1
		c0-2.2,0.4-4.3,1.1-6.1c0.7-1.9,1.7-3.5,3.1-4.9c0.1-0.1,0.2-0.2,0.3-0.3l1.5-1.5l2.8,2.9l-1.7,1.6c-0.9,1-1.7,2.2-2.2,3.6
		s-0.8,3-0.8,4.7c0,1.7,0.3,3.3,0.8,4.7s1.3,2.6,2.2,3.6c0.1,0.1,0.2,0.2,0.3,0.2l1.4,1.4L-387,271.8z"/>
</g>
<g id="XMLID_523_">
	<path id="XMLID_509_" d="M-368.4,271.4l-2.9-2.7l1.4-1.5c0.9-1,1.6-2.1,2.1-3.4c0.5-1.4,0.8-3,0.8-4.7c0-1.7-0.3-3.3-0.8-4.7
		c-0.5-1.3-1.2-2.5-2.1-3.5l-1.4-1.5l2.9-2.7l1.4,1.5c1.2,1.4,2.2,3,2.9,4.7c0.7,1.9,1.1,3.9,1.1,6.1s-0.4,4.3-1.1,6.1
		c-0.7,1.8-1.7,3.4-2.9,4.7L-368.4,271.4z"/>
</g>
<g id="XMLID_522_">
	<path id="XMLID_491_" d="M-362.5,277.3l-2.9-2.7l1.4-1.5c1.6-1.7,2.8-3.7,3.6-6c0.9-2.4,1.4-5.1,1.4-8.1c0-2.9-0.5-5.6-1.4-8.1
		c-0.9-2.3-2.1-4.3-3.7-6l-1.4-1.5l2.9-2.7l1.4,1.5c1.9,2.1,3.4,4.5,4.5,7.3c1.1,2.9,1.6,6.1,1.6,9.5c0,3.4-0.6,6.6-1.6,9.5
		c-1,2.8-2.5,5.2-4.5,7.3L-362.5,277.3z"/>
</g>
<g id="XMLID_521_">
	<path id="XMLID_490_" d="M-356.9,282.9l-2.9-2.7l1.4-1.5c2.2-2.4,3.9-5.2,5.1-8.4c1.3-3.4,1.9-7.2,1.9-11.3s-0.7-7.9-1.9-11.3
		c-1.2-3.2-2.9-6-5.2-8.4l-1.4-1.5l2.9-2.7l1.5,1.6c2.6,2.8,4.6,6,6,9.7c1.5,3.8,2.2,8.1,2.2,12.7s-0.7,8.8-2.2,12.7
		c-1.5,3.6-3.5,6.9-6,9.6L-356.9,282.9z"/>
</g>
</svg>
